<svg xmlns="http://www.w3.org/2000/svg" width="41.728" height="38.27" viewBox="0 0 41.728 38.27"><defs><style>.a{fill:#575757;stroke:#575757;stroke-width:0.4px;}</style></defs><g transform="translate(0.2 0.2)"><g transform="translate(8.992 13.142)"><path class="a" d="M115.15,184.366a.605.605,0,0,0-.852.089,1.125,1.125,0,0,1-1.826,0,.605.605,0,1,0-.94.763,2.334,2.334,0,0,0,3.707,0A.605.605,0,0,0,115.15,184.366Z" transform="translate(-111.397 -184.231)"/></g><g transform="translate(7.609 9.684)"><path class="a" d="M94.864,141.386a.605.605,0,0,0-.605.605v.692a.605.605,0,0,0,1.211,0v-.692A.605.605,0,0,0,94.864,141.386Z" transform="translate(-94.259 -141.386)"/></g><g transform="translate(13.142 9.684)"><path class="a" d="M163.416,141.386a.605.605,0,0,0-.605.605v.692a.605.605,0,1,0,1.211,0v-.692A.605.605,0,0,0,163.416,141.386Z" transform="translate(-162.811 -141.386)"/></g><g transform="translate(29.051 16.6)"><path class="a" d="M363.651,227.21a.605.605,0,0,0-.851.089,1.125,1.125,0,0,1-1.826,0,.605.605,0,1,0-.94.763,2.334,2.334,0,0,0,3.707,0A.605.605,0,0,0,363.651,227.21Z" transform="translate(-359.898 -227.075)"/></g><g transform="translate(27.667 13.142)"><g transform="translate(0 0)"><path class="a" d="M343.364,184.231a.605.605,0,0,0-.605.605v.692a.605.605,0,1,0,1.211,0v-.692A.605.605,0,0,0,343.364,184.231Z" transform="translate(-342.759 -184.231)"/></g></g><g transform="translate(33.201 13.142)"><g transform="translate(0 0)"><path class="a" d="M411.916,184.231a.605.605,0,0,0-.605.605v.692a.605.605,0,0,0,1.211,0v-.692A.605.605,0,0,0,411.916,184.231Z" transform="translate(-411.311 -184.231)"/></g></g><path class="a" d="M39.643,46.534l-4.743-1.9a.794.794,0,0,1-.073-.036,12.527,12.527,0,0,0,4.9-2.048A.605.605,0,0,0,39.939,42a78.429,78.429,0,0,1-.686-9.6,8.214,8.214,0,1,0-16.428,0c0,1.241-.056,2.759-.148,4.2l-1.322.661-3.879-1.94-.034-.014a6.782,6.782,0,0,0,.35-1.693A1.987,1.987,0,0,0,18.5,30.2V26.176A3.369,3.369,0,0,0,17.019,23.4a2.661,2.661,0,0,0-2.58-1.976H8.905a5.453,5.453,0,0,0-5.447,5.447V30.2a1.987,1.987,0,0,0,.711,3.406,6.828,6.828,0,0,0,2.747,4.967v1.673l-5.007,1.5A2.664,2.664,0,0,0,0,44.32v6.756a.605.605,0,0,0,.605.605H.692v7a.605.605,0,1,0,1.211,0v-7H4.15v7a.605.605,0,1,0,1.211,0V48.246a2.672,2.672,0,0,0-.45-1.487L3.876,45.207a.605.605,0,1,0-1.007.672L3.9,47.431a1.465,1.465,0,0,1,.247.815v2.225H1.211V44.32a1.461,1.461,0,0,1,1.047-1.408l2.078-.623a6.832,6.832,0,0,0,9.881,4.427,1.987,1.987,0,0,0,1.6.816h.086v.086a5.45,5.45,0,0,0,2.767,4.739v.987a.086.086,0,0,1-.059.082l-2.258.753a2.677,2.677,0,0,0-1.833,2.543v1.963a.605.605,0,1,0,1.211,0V56.722a1.468,1.468,0,0,1,1-1.394l.664-.221a4.755,4.755,0,0,0,7.9,0l.664.221a1.468,1.468,0,0,1,1,1.394v1.963a.605.605,0,1,0,1.211,0V56.722a2.677,2.677,0,0,0-1.833-2.543L24.1,53.426a.086.086,0,0,1-.059-.082v-.987A5.469,5.469,0,0,0,26.6,49.089a6.138,6.138,0,0,0,10.283-2.356l2.311.924a1.463,1.463,0,0,1,.924,1.364v2.832H37.87v-.778a.605.605,0,1,0-1.211,0v7.609a.605.605,0,1,0,1.211,0v-5.62h1.556v5.62a.605.605,0,0,0,1.211,0v-5.62h.086a.605.605,0,0,0,.605-.605V49.023A2.667,2.667,0,0,0,39.643,46.534ZM24.036,32.4a7,7,0,1,1,14.006,0,79.485,79.485,0,0,0,.649,9.4,12.96,12.96,0,0,1-4.28,1.65V42.49a6.778,6.778,0,0,0,.919-.624,6.815,6.815,0,0,0,2.54-5.315c0-3.422-2.475-3.913-4.868-4.388a9.712,9.712,0,0,1-4.351-1.618.605.605,0,0,0-.984.473c0,.016-.026,1.609-2.308,2.179a.605.605,0,0,0,.294,1.175,4.006,4.006,0,0,0,3.007-2.354,12.68,12.68,0,0,0,4.107,1.333c2.558.508,3.893.881,3.893,3.2a5.6,5.6,0,0,1-2.09,4.373,5.619,5.619,0,0,1-6.8.2,6.841,6.841,0,0,0-1.657-2.555V35.859a.605.605,0,0,0-.876-.541l-1.307.654C24,34.711,24.036,33.512,24.036,32.4Zm.864,4.438V39.03l-2.191-1.1Zm-7.089,0L20,37.934l-2.191,1.1Zm-3.286,6.629v.575a1.989,1.989,0,0,0-.692,1.5A5.62,5.62,0,0,1,5.5,41.94l1.5-.449a4.062,4.062,0,0,0,7.589,1.085A6.807,6.807,0,0,0,14.525,43.468ZM8.128,40.7V39.3a6.821,6.821,0,0,0,5.706,0v1.4a2.853,2.853,0,0,1-5.706.008S8.128,40.7,8.128,40.7Zm2.853-1.988a5.626,5.626,0,0,1-5.62-5.62.605.605,0,0,0-.605-.605.778.778,0,0,1,0-1.556H6.139a.605.605,0,0,0,.574-.414l.556-1.667c1.391-.031,5.7-.227,8.133-1.441a.605.605,0,0,0-.541-1.083c-2.606,1.3-7.976,1.319-8.03,1.319a.605.605,0,0,0-.574.414L5.7,29.72H4.756l-.086,0V26.867a4.241,4.241,0,0,1,4.236-4.236h5.533a1.459,1.459,0,0,1,1.444,1.239.605.605,0,0,0,.3.432,2.161,2.161,0,0,1,1.108,1.874v3.547l-.086,0h-.692a.605.605,0,0,0,0,1.211h.692a.778.778,0,0,1,0,1.556.605.605,0,0,0-.605.605A5.626,5.626,0,0,1,10.981,38.712ZM15.044,40.7V38.577A6.886,6.886,0,0,0,16.6,36.969v1.6a6.84,6.84,0,0,0-1.56,2.3C15.042,40.813,15.044,40.757,15.044,40.7Zm9.054,14a3.542,3.542,0,0,1-5.485,0L19,54.575a1.3,1.3,0,0,0,.887-1.23v-.483a5.419,5.419,0,0,0,2.939,0v.483a1.3,1.3,0,0,0,.887,1.23Zm2.1-8.383a.605.605,0,0,0-.605.605v.6c0,.005,0,.01,0,.016v.074a4.236,4.236,0,0,1-8.473,0v-.692a.605.605,0,0,0-.605-.605h-.692a.779.779,0,0,1-.778-.778.769.769,0,0,1,.391-.668.6.6,0,0,0,.143-.118c1.5-.043,6.348-.325,9.536-2.147a.605.605,0,0,0-.6-1.051c-2.793,1.6-7.182,1.916-8.778,1.979v-.07a5.625,5.625,0,0,1,.959-3.136.6.6,0,0,0,.782.219l3.879-1.94,3.879,1.94a.6.6,0,0,0,.782-.219,5.625,5.625,0,0,1,.959,3.136v.884a.605.605,0,0,0,.3.523.769.769,0,0,1,.391.668.779.779,0,0,1-.778.778Zm4.842,3.458A4.935,4.935,0,0,1,26.9,47.531a1.983,1.983,0,0,0,1.283-3.488v-.575a6.807,6.807,0,0,0-.039-.726,6.826,6.826,0,0,0,5.053.286v.887a1.979,1.979,0,0,0,1.25,1.847l1.305.522A4.925,4.925,0,0,1,31.039,49.779Z" transform="translate(0 -21.42)"/><g transform="translate(19.367 26.976)"><g transform="translate(0 0)"><path class="a" d="M243.685,355.745a.605.605,0,0,0-.852.089,1.125,1.125,0,0,1-1.826,0,.605.605,0,0,0-.94.763,2.334,2.334,0,0,0,3.707,0A.606.606,0,0,0,243.685,355.745Z" transform="translate(-239.932 -355.61)"/></g></g><g transform="translate(18.687 24.212)"><g transform="translate(0 0)"><circle class="a" cx="0.605" cy="0.605" r="0.605"/></g></g><g transform="translate(22.803 24.212)"><g transform="translate(0 0)"><circle class="a" cx="0.605" cy="0.605" r="0.605"/></g></g></g></svg>