<svg xmlns="http://www.w3.org/2000/svg" width="251.434" height="24.667" viewBox="0 0 251.434 24.667"><defs><style>.a{fill:#fff;}.a,.b,.c,.d,.e,.f,.g,.i{fill-rule:evenodd;}.b{fill:#c12a21;}.c{fill:#0074c5;}.d{fill:#f4cf00;}.e{fill:#d98918;}.f{fill:#302e2b;}.g{fill:#272425;}.h,.i{fill:none;stroke:#302e2b;stroke-miterlimit:3.864;stroke-width:0.415px;}</style></defs><path class="a" d="M214.535,61.681c3.945.849,13.632.6,13.881-5.792,0-2.547-3.3-4.943-6.441-5.642a20.89,20.89,0,0,0-10.236,0c-2.4.9-3.146-1.448-.949-2.247,4.144-1.5,20.273-1.848,21.072,7.84-.649,9.587-14.78,8.888-17.926,8.239a2.311,2.311,0,0,1-2.2-2.447V53.642a1.4,1.4,0,1,1,2.8,0Z" transform="translate(-166.666 -40.51)"/><path class="a" d="M267.246,50.445c-3.146,0-8.439,9.587-9.987,13.033a1.653,1.653,0,1,1-2.946-1.5c1.648-3.7,7.989-14.88,12.883-14.78,4.943-.1,11.235,11.085,12.933,14.78.949,2.047-2,3.545-2.946,1.5C275.635,60.032,270.392,50.445,267.246,50.445Z" transform="translate(-189.018 -40.508)"/><path class="a" d="M311.3,61.318c3.146,0,8.439-9.587,9.987-13.033a1.642,1.642,0,1,1,2.946,1.448c-1.7,3.7-7.989,14.83-12.883,14.78-4.943.1-11.235-11.035-12.933-14.78a1.643,1.643,0,1,1,2.946-1.448C302.908,51.731,308.151,61.318,311.3,61.318Z" transform="translate(-211.097 -40.546)"/><path class="a" d="M357.746,48.941V62.923c0,2.1-3.146,2-3.146-.1V48.892A1.574,1.574,0,1,1,357.746,48.941Z" transform="translate(-239.321 -40.553)"/><path class="a" d="M378.1,61.318c3.146,0,8.439-9.587,9.987-13.033a1.642,1.642,0,1,1,2.946,1.448c-1.648,3.7-7.989,14.83-12.933,14.78-4.943.1-11.235-11.035-12.883-14.78a1.643,1.643,0,1,1,2.946-1.448C369.708,51.731,374.9,61.318,378.1,61.318Z" transform="translate(-244.541 -40.546)"/><path class="a" d="M435.795,57.339c.949,1.947,3.6,3.545,6.092,4.095a20.691,20.691,0,0,0,10.186,0c2.347-.749,3.146,1.5.949,2.247-4.294,1.448-20.173,2-21.122-7.74.5-9.238,13.182-8.988,18.026-8.389,2.347.3,1.9,2.8-.6,2.3-3.246-.449-12.034-.949-13.732,4.893h9.038c1.4,0,1.4,2.6,0,2.6Z" transform="translate(-278.022 -40.561)"/><path class="a" d="M535.385,61.681c3.945.849,13.682.6,13.882-5.792,0-2.547-3.3-4.943-6.441-5.642a20.691,20.691,0,0,0-10.186,0c-2.4.9-3.146-1.448-.949-2.247,4.144-1.5,20.273-1.848,21.072,7.84-.649,9.587-14.78,8.888-17.926,8.239a2.311,2.311,0,0,1-2.2-2.447V53.642a1.4,1.4,0,1,1,2.8,0Z" transform="translate(-327.33 -40.51)"/><path class="a" d="M587.961,50.445c-3.146,0-8.439,9.587-9.987,13.033-.949,2.047-3.845.6-2.946-1.5,1.7-3.7,7.989-14.88,12.933-14.78,4.943-.1,11.235,11.085,12.883,14.78.949,2.047-2,3.545-2.946,1.5C596.35,60.032,591.107,50.445,587.961,50.445Z" transform="translate(-349.596 -40.508)"/><path class="a" d="M424.446,48.941V62.923c0,2.1-3.146,2-3.146-.1V48.892A1.574,1.574,0,1,1,424.446,48.941Z" transform="translate(-272.715 -40.553)"/><path class="a" d="M492.735,58.785c-1.947-3.6-4.095-8.289-5.593-8.389-3.645,0-2,7.19-2.047,12.783,0,2-3.146,1.947-3.146-.2,0-7.14-1.548-15.679,5.293-15.679,2,0,3.895,3,5.593,5.792,1.947,3.6,4.294,8.339,5.742,8.439,3.645,0,1.9-7.041,2-12.633,0-2,3.146-2,3.146.2,0,7.14,1.6,15.529-5.193,15.529C496.48,64.577,494.433,61.581,492.735,58.785Z" transform="translate(-303.005 -40.559)"/><path class="b" d="M130.368,55.6c.05.5,0,2.7-2,5.692-2.1,3.3,1.2,8.788,7.84,7.39a12.982,12.982,0,0,0,4.045.6,11.654,11.654,0,0,0,4.045-.6c6.641,1.4,9.937-4.095,7.84-7.39-2-3-2.047-5.143-2-5.692Z" transform="translate(-125.741 -44.715)"/><path class="c" d="M146.234,70.383c-6.491-.15-7.69-3.146-5.892-3.795a25.055,25.055,0,0,0,2.4-1c-.7-3.4.449-7.69,3.5-7.69s4.144,4.444,3.445,7.74c0,0,1.4.5,2.4.9C153.774,67.287,152.726,70.234,146.234,70.383Z" transform="translate(-131.671 -45.866)"/><path class="d" d="M147.255,68.838c-1.748-4.844-.2-9.338,2.447-9.338,2.547,0,4.244,4.394,2.447,9.338a12.379,12.379,0,0,0-2.547-.2A14.757,14.757,0,0,0,147.255,68.838Z" transform="translate(-135.138 -46.667)"/><path class="e" d="M148.243,80.3c2.6,0,4.694-.549,4.694-1.348s-2.047-1.348-4.694-1.348c-2.6,0-4.644.549-4.644,1.348C143.549,79.747,145.6,80.3,148.243,80.3Z" transform="translate(-133.679 -55.729)"/><path class="c" d="M134.7,60.4h3.146a.9.9,0,0,1,.9.9v2.1a.9.9,0,0,1-.9.9H134.7a.9.9,0,0,1-.9-.9V61.3A.9.9,0,0,1,134.7,60.4Z" transform="translate(-128.774 -47.118)"/><path class="f" d="M135.6,61.4h2.5a.683.683,0,0,1,.7.7v1.548a.643.643,0,0,1-.7.649h-2.5a.707.707,0,0,1-.7-.649V62.1A.683.683,0,0,1,135.6,61.4Z" transform="translate(-129.324 -47.618)"/><path class="d" d="M141,63.248c-1.1-.1-1.5-1.4-1.6-1.848h.9a.683.683,0,0,1,.7.7Z" transform="translate(-131.577 -47.618)"/><path class="d" d="M136.6,61.4c-.05.4-.4,1.8-1.6,1.848V62.1a.683.683,0,0,1,.7-.7h.9Z" transform="translate(-129.374 -47.618)"/><path class="c" d="M163,60.4h3.146a.9.9,0,0,1,.9.9v2.1a.9.9,0,0,1-.9.9H163a.9.9,0,0,1-.9-.9V61.3A.9.9,0,0,1,163,60.4Z" transform="translate(-142.942 -47.118)"/><path class="f" d="M163.9,61.4h2.5a.683.683,0,0,1,.7.7v1.548a.643.643,0,0,1-.7.649h-2.5a.707.707,0,0,1-.7-.649V62.1A.714.714,0,0,1,163.9,61.4Z" transform="translate(-143.493 -47.618)"/><path class="d" d="M169.3,63.248c-1.148-.1-1.5-1.4-1.6-1.848h.949a.683.683,0,0,1,.7.7v1.148Z" transform="translate(-145.746 -47.618)"/><path class="d" d="M164.9,61.4c-.05.4-.449,1.8-1.6,1.848V62.1a.683.683,0,0,1,.7-.7h.9Z" transform="translate(-143.543 -47.618)"/><path class="b" d="M165.674,37.6c-.35-1.148-.4-1.7.649-1.7h2.3c1.4-.05.8,1.049.7,2.1a16.265,16.265,0,0,0-.2,1.8S165.674,37.646,165.674,37.6Z" transform="translate(-144.619 -34.85)"/><path class="e" d="M138.623,44.736c-3.4,0-8.039.3-11.035.549-2.3.15-4.045-1.6-2.547-3.246,3.246-3.545,11.185-7.939,13.582-7.939,2.547,0,10.336,4.444,13.582,7.939,1.548,1.648,0,3.246-2.3,3.246C147.361,45.285,142.018,44.736,138.623,44.736Z" transform="translate(-124.109 -33.95)"/><path class="g" d="M156.5,70.749a.449.449,0,1,1,.449.449A.448.448,0,0,1,156.5,70.749Z" transform="translate(-140.139 -52.074)"/><path class="f" d="M138.3,55.621a15.255,15.255,0,0,0-2.447.2c-1.6-4.694-.15-9.088,2.447-9.088s4.045,4.394,2.447,9.088a14.488,14.488,0,0,0-2.447-.2Zm2.347.4a14.481,14.481,0,0,0-4.794,0c-1.348.2-2.2.6-2.2,1.049,0,.649,2.047,1.2,4.594,1.2s4.594-.549,4.594-1.2c.05-.449-.849-.849-2.2-1.049Zm.2-.15c1.3.25,2.147.7,2.147,1.2a.69.69,0,0,1-.25.449c2.2-1,2.347-2.547,1.2-2.946-1.049-.35-2.3-.849-2.3-.849.649-3.3-.35-7.69-3.4-7.69-3,0-4.045,4.394-3.4,7.69,0,0-1.248.5-2.3.849-1.2.4-1,2,1.2,2.946a.69.69,0,0,1-.25-.449c0-.5.849-.949,2.147-1.2-1.7-4.844-.05-9.338,2.6-9.338s4.294,4.444,2.6,9.338ZM144.939,36.5h0c-.25-1.049-.25-1.448.6-1.448h1.947c1.3-.05.749,1,.649,1.947-.05.6-.1,1.1-.15,1.448-1-.7-2.047-1.348-3.046-1.947Zm-2.247,21.222h0c6.242,1.049,9.288-4.144,7.29-7.34a10.427,10.427,0,0,1-1.947-5.193c-4.095-.2-6.891-.4-9.687-.449-2.8.05-5.642.25-9.687.449a10.65,10.65,0,0,1-2,5.193c-2,3.146,1.049,8.389,7.29,7.34-2.646-1-2.946-2.7-1.548-3.246,1.049-.4,2.4-.9,2.4-.9-.7-3.4.5-7.84,3.545-7.79,3.046,0,4.244,4.444,3.545,7.79,0,0,1.4.5,2.4.9,1.348.549,1.049,2.247-1.6,3.246ZM138.3,44.336c3.5.05,6.841.3,10.736.549,2.447.15,3.795-1.448,2.247-3.146-2.247-2.447-9.987-7.54-13.033-7.54s-10.786,5.093-13.033,7.54c-1.548,1.7-.15,3.3,2.247,3.146,3.995-.25,7.34-.5,10.836-.549Zm6.192-8.089A17.493,17.493,0,0,0,138.3,33.8c-2.247,0-8.089,3.046-12.933,7.091-3.246,2.746-1.148,4.544,1.947,4.394l.9-.05a7.852,7.852,0,0,1-1.7,4.494c-3.6,4.294,1.148,9.687,7.889,8.189a13.484,13.484,0,0,0,3.845.549,13.246,13.246,0,0,0,3.845-.549c6.741,1.5,11.485-3.895,7.889-8.189a7.5,7.5,0,0,1-1.7-4.494c.3,0,.6.05.9.05,3.1.15,5.193-1.648,1.947-4.394-1.049-.849-2.9-2.247-2.9-2.247a13.5,13.5,0,0,1,.35-2.2c.25-.9.4-1.8-.949-1.8h-2.247c-1.049,0-1.2.7-1.049,1.3.1.1.1.2.15.3Z" transform="translate(-123.734 -33.8)"/><line class="h" x2="3.146" transform="translate(5.925 13.282)"/><path class="i" d="M141.9,60.4a.9.9,0,0,1,.9.9" transform="translate(-132.829 -47.118)"/><line class="h" y2="2.097" transform="translate(9.97 14.181)"/><path class="i" d="M142.8,66.4a.9.9,0,0,1-.9.9" transform="translate(-132.829 -50.122)"/><line class="h" x1="3.146" transform="translate(5.925 17.177)"/><path class="i" d="M134.7,67.3a.9.9,0,0,1-.9-.9" transform="translate(-128.774 -50.122)"/><line class="h" y1="2.097" transform="translate(5.026 14.181)"/><path class="i" d="M133.8,61.3a.9.9,0,0,1,.9-.9" transform="translate(-128.774 -47.118)"/><line class="h" x2="3.146" transform="translate(20.056 13.282)"/><path class="i" d="M170.2,60.4a.9.9,0,0,1,.9.9" transform="translate(-146.998 -47.118)"/><line class="h" y2="2.097" transform="translate(24.101 14.181)"/><path class="i" d="M171.1,66.4a.9.9,0,0,1-.9.9" transform="translate(-146.998 -50.122)"/><line class="h" x1="3.146" transform="translate(20.056 17.177)"/><path class="i" d="M163,67.3a.9.9,0,0,1-.9-.9" transform="translate(-142.942 -50.122)"/><line class="h" y1="2.097" transform="translate(19.158 14.181)"/><path class="i" d="M162.1,61.3a.9.9,0,0,1,.9-.9" transform="translate(-142.942 -47.118)"/></svg>