<svg xmlns="http://www.w3.org/2000/svg" width="24" height="24" viewBox="0 0 24 24"><defs><style>.a{fill:#dd141d;}</style></defs><path class="a" d="M12,0A12,12,0,1,0,24,12,12.023,12.023,0,0,0,12,0m3.541,16.957a1.172,1.172,0,0,1,.708,1.338,1.26,1.26,0,0,1-1.22,1.023,1.579,1.579,0,0,1-.59-.118c-.079-.039-8.144-3.816-8.066-7.2C6.3,8.616,14.361,4.839,14.439,4.8a1.579,1.579,0,0,1,.59-.118A1.26,1.26,0,0,1,16.249,5.7a1.151,1.151,0,0,1-.708,1.338C13.141,8.144,8.813,10.7,8.813,12c.039,1.259,4.407,3.9,6.728,4.957"/></svg>