<svg xmlns="http://www.w3.org/2000/svg" width="36" height="36" viewBox="0 0 36 36"><defs><style>.a{fill:#fff;stroke:rgba(112,112,112,0.3);stroke-width:0.5px;opacity:0;}.b{fill:#dd141d;}.c{fill:#575757;}.d{stroke:none;}.e{fill:none;}</style></defs><g transform="translate(14547 237)"><g class="a" transform="translate(-14547 -237)"><rect class="d" width="36" height="36" rx="7"/><rect class="e" x="0.25" y="0.25" width="35.5" height="35.5" rx="6.75"/></g><g transform="translate(-14540 -232)"><path class="b" d="M12.825,13.207v7.914a.733.733,0,0,1-.715.715H1.859a.733.733,0,0,1-.715-.715V1.859a.733.733,0,0,1,.715-.715H12.11a.669.669,0,0,1,.667.572L13.731,1a1.966,1.966,0,0,0-1.669-1H1.859A1.893,1.893,0,0,0,0,1.859v22.17a1.862,1.862,0,0,0,1.859,1.859H12.11a1.862,1.862,0,0,0,1.859-1.859V12.587ZM7.009,25.078A1.192,1.192,0,1,1,8.2,23.886a1.211,1.211,0,0,1-1.192,1.192" transform="translate(0 0)"/><path class="c" d="M23.543,10.869,23.3,10.2,20.968,3.669a.658.658,0,0,0-.143-.191,2.828,2.828,0,0,0-1.1-.238c-1.859,0-4.434,1.526-6.913,3a36.393,36.393,0,0,1-3.91,2.145,41.106,41.106,0,0,0,3.766-2.432c2.384-1.669,4.815-3.385,6.675-3.48h.381l-.191-.334c-.048-.1-.1-.143-.191-.143a2.78,2.78,0,0,0-1.1-.1c-1.764.238-4,2.05-6.15,3.766A28.78,28.78,0,0,1,8.048,8.58,29.531,29.531,0,0,0,11.91,5.386c2.05-1.907,4.2-3.814,5.912-4.148.1,0,.191-.048.334-.048L17.869.809a.658.658,0,0,0-.191-.143A2.6,2.6,0,0,0,16.63.713a7.667,7.667,0,0,0-2.861,1.859h0a1.507,1.507,0,0,0-1.24-.381h-8.2A.427.427,0,0,0,3.9,2.62V21.214a.427.427,0,0,0,.429.429h9.583a.427.427,0,0,0,.429-.429V14.635c.334-.191,1-.429,1.383-.667,2.432-1.43,4.911-2.908,6.579-2.908a1.633,1.633,0,0,1,.858.191c.048,0,.1.048.143.048.1,0,.143-.048.238-.1a.407.407,0,0,0,0-.334m-5.96-1.144c-.191,1.812-1.526,3.337-3.051,3.385-1.526.1-2.622-1.335-2.432-3.147s1.526-3.337,3.051-3.385c1.526-.1,2.622,1.335,2.432,3.147" transform="translate(-2.041 -0.332)"/><path class="b" d="M26.895,16.734c-.191-.429-.524-.429-.954-.238l-.381.143c-.191.048-.286.1-.334,0s.048-.238.143-.334c.334-.286.477.048.715-.143a.4.4,0,0,0,.143-.524c-.143-.286-.477-.238-.763-.048l-.238-.429c0-.048-.048-.048-.1,0l-.429.334c-.048,0-.048.048,0,.1l.191.429a1.152,1.152,0,0,0-.286,1.287.628.628,0,0,0,.858.286l.524-.191c.143-.048.238-.048.286.048.1.143-.048.286-.143.429-.334.238-.524-.048-.763.1a.451.451,0,0,0-.143.524c.1.191.381.334.906.1l.238.429c0,.048.048.048.1,0l.429-.334c.048,0,.048-.048,0-.1l-.238-.429a1.449,1.449,0,0,0,.238-1.43" transform="translate(-12.83 -7.914)"/></g></g></svg>