<svg xmlns="http://www.w3.org/2000/svg" width="36" height="36" viewBox="0 0 36 36"><defs><style>.a{fill:#fff;stroke:rgba(112,112,112,0.3);stroke-width:0.5px;opacity:0;}.b{fill:#575757;}.c{fill:#dd141d;fill-rule:evenodd;}.d{stroke:none;}.e{fill:none;}</style></defs><g transform="translate(14491 237)"><g class="a" transform="translate(-14491 -237)"><rect class="d" width="36" height="36" rx="7"/><rect class="e" x="0.25" y="0.25" width="35.5" height="35.5" rx="6.75"/></g><g transform="translate(-14959.145 -3183.831)"><path class="b" d="M483.2,2968.436h-5.862a1.2,1.2,0,0,0-1.194,1.195v15.47a1.193,1.193,0,0,0,1.194,1.192h11.9a1.193,1.193,0,0,0,1.194-1.195v-11.241c-5.331,0-6.861-3-7.23-5.42m-4.873,3.967h4.564v1.39h-4.564Zm9.92,9.723h-9.92v-1.387h9.92Zm0-2.776h-9.92v-1.389h9.92Zm0-2.779h-9.92v-1.389h9.92Z" transform="translate(0 -8.806)"/><path class="c" d="M499.9,2952.831a5.668,5.668,0,1,0,5.667,5.668,5.669,5.669,0,0,0-5.667-5.668m.563,8.452v.626c0,.147-.049.237-.239.237h-.641c-.188,0-.237-.09-.237-.237v-.642a1.833,1.833,0,0,1-1.643-1.685c0-.187.05-.229.237-.229h.8c.189,0,.28.025.3.229a.561.561,0,0,0,.156.337,1.077,1.077,0,0,0,.806.271c.444,0,.8-.1.8-.559s-.731-.467-1.429-.69c-.829-.261-1.594-.59-1.594-1.633a1.662,1.662,0,0,1,1.569-1.586v-.633c0-.147.048-.238.237-.238h.641c.19,0,.238.09.238.238v.656c.8.166,1.495.641,1.495,1.487,0,.2-.049.229-.237.229h-.805c-.156,0-.182-.114-.222-.219a.555.555,0,0,0-.172-.248,1.086,1.086,0,0,0-.7-.222c-.271,0-.722.107-.722.477,0,.5,1.208.682,1.536.813.592.181,1.462.42,1.462,1.538a1.668,1.668,0,0,1-1.633,1.683" transform="translate(-10.205)"/></g></g></svg>