<svg xmlns="http://www.w3.org/2000/svg" width="36" height="36" viewBox="0 0 36 36"><defs><style>.a{fill:#fff;stroke:rgba(112,112,112,0.3);stroke-width:0.5px;opacity:0;}.b{fill:#e10518;}.c{fill:#575757;}.d{stroke:none;}.e{fill:none;}</style></defs><g transform="translate(14435 237)"><g class="a" transform="translate(-14435 -237)"><rect class="d" width="36" height="36" rx="7"/><rect class="e" x="0.25" y="0.25" width="35.5" height="35.5" rx="6.75"/></g><g transform="translate(-15105.055 -3185.048)"><path class="b" d="M684.446,2966.415h-3.731v-.762h3.73v-1.122h-3.73v-.759h3.736a1.987,1.987,0,0,1,.421-1.123h-4.158v-.76h11.56l.009-7.841H679.055v19.886h5.391Zm-3.731-10.493h3.17v1.159h-3.17Zm0,2.2h8.838v1.393h-8.838Zm0,1.923h8.838v1.395h-8.838Zm1.467,11.769v.485h-.609v-.466a6.222,6.222,0,0,1-.774-.089V2971h.467l.044.249c.138,0,.277.007.455.007.327,0,.487-.1.487-.322,0-.163-.082-.23-.352-.359l-.455-.216c-.431-.2-.731-.378-.731-.882,0-.479.3-.743.858-.819v-.456h.608v.436a4.61,4.61,0,0,1,.738.1v.71h-.468l-.042-.232c-.144-.012-.288-.017-.442-.017-.313,0-.48.065-.48.271,0,.147.071.218.347.341l.432.19c.482.218.762.422.762.912a.871.871,0,0,1-.845.9" transform="translate(0 0)"/><path class="c" d="M703.715,2989.5h-9.388a1.22,1.22,0,0,1-1.217-1.218v-13.375a1.219,1.219,0,0,1,1.217-1.216h9.388a1.218,1.218,0,0,1,1.218,1.216v13.375a1.22,1.22,0,0,1-1.218,1.218m-9.388-14.883a.29.29,0,0,0-.289.29v13.375a.289.289,0,0,0,.289.289h9.388a.289.289,0,0,0,.29-.289v-13.375a.29.29,0,0,0-.29-.29Z" transform="translate(-7.893 -11.031)"/><rect class="c" width="7.225" height="0.926" transform="translate(687.517 2969.641)"/><rect class="c" width="4.03" height="0.928" transform="translate(687.517 2966.644)"/><rect class="c" width="7.225" height="0.926" transform="translate(687.517 2971.972)"/><rect class="c" width="7.225" height="0.928" transform="translate(687.517 2974.37)"/></g></g></svg>