<svg xmlns="http://www.w3.org/2000/svg" width="36" height="36" viewBox="0 0 36 36"><defs><style>.a{fill:#fff;stroke:rgba(112,112,112,0.3);stroke-width:0.5px;opacity:0;}.b{fill:#575757;}.c{fill:#dd141d;}.d{stroke:none;}.e{fill:none;}</style></defs><g transform="translate(14603 237)"><g class="a" transform="translate(-14603 -237)"><rect class="d" width="36" height="36" rx="7"/><rect class="e" x="0.25" y="0.25" width="35.5" height="35.5" rx="6.75"/></g><g transform="translate(-14596 -227)"><path class="b" d="M2.736,16.452H19.188L16.452,2.736H5.471Zm9.347-4.294c.19-.076.418-.152.532-.19a1.335,1.335,0,0,0,.342-.266.935.935,0,0,0,.152-.418c0-.266-.152-.418-.418-.532a7.228,7.228,0,0,0-1.216-.342h-.038l.076,1.862a1.875,1.875,0,0,1,.57-.114M10.145,7.751a.935.935,0,0,0-.418.152,2.591,2.591,0,0,0-.266.19.483.483,0,0,0-.152.266c0,.19.076.266.266.418a2.4,2.4,0,0,0,.95.19V7.675c-.038.076-.228.076-.38.076m-.76,4.066a3.307,3.307,0,0,0,1.178.418V10.259c-.076,0-.152,0-.19-.076a.362.362,0,0,1-.266-.076,9.719,9.719,0,0,0-1.026-.19,3,3,0,0,1-.874-.342A1.344,1.344,0,0,1,7.6,9.081.847.847,0,0,1,7.447,8.4a.994.994,0,0,1,.342-.684,2.391,2.391,0,0,1,.76-.494,3.475,3.475,0,0,1,.95-.266A5.532,5.532,0,0,1,10.677,6.8V6.269h.76V6.8a4.821,4.821,0,0,1,1.1.152,5.68,5.68,0,0,1,.95.266,2.256,2.256,0,0,1,.684.494,1.59,1.59,0,0,1,.418.684H12.539a.7.7,0,0,0-.342-.532,1.07,1.07,0,0,0-.8-.266V8.967a.565.565,0,0,1,.342.076c.152,0,.266.076.418.076a14.206,14.206,0,0,1,1.634.418,2.3,2.3,0,0,1,.874.532,3.508,3.508,0,0,1,.418.532,1.933,1.933,0,0,1,.152.532,1.385,1.385,0,0,1-.076.532,1.68,1.68,0,0,1-.532.684,5.548,5.548,0,0,1-1.178.608,8.106,8.106,0,0,1-1.976.342v.95H10.449V13.3a6.048,6.048,0,0,1-2.812-.76,1.987,1.987,0,0,1-.76-1.71H9a1.125,1.125,0,0,0,.38.988" transform="translate(0)"/><path class="c" d="M19.91,9.613h-.684l-.342-1.368H19.91a.638.638,0,0,0,.684-.684V2.052a.638.638,0,0,0-.684-.684H2.052a.638.638,0,0,0-.684.684V7.523a.638.638,0,0,0,.684.684H3.078L2.736,9.575H2.052A1.9,1.9,0,0,1,0,7.523V2.052A2.02,2.02,0,0,1,2.052,0h17.82a2.02,2.02,0,0,1,2.052,2.052V7.523a1.876,1.876,0,0,1-2.014,2.09" transform="translate(0)"/></g></g></svg>